<svg xmlns="http://www.w3.org/2000/svg" viewBox="0 0 150.1 150.1"><defs><style>.cls-1{fill:#1e1e1e;}</style></defs><title>Asset 1</title><g id="Layer_2" data-name="Layer 2"><g id="Layer_1-2" data-name="Layer 1"><path class="cls-1" d="M92.51,37.69a25.6,25.6,0,0,0-10.87,6.5,18.19,18.19,0,0,0-4.85,7.38,15.78,15.78,0,0,0-.71,7.68,20.72,20.72,0,0,0,2.66,7.21l1.83,2.89,29.3-29.12a26.6,26.6,0,0,0-4.66-2.31A18.72,18.72,0,0,0,92.51,37.69Z"/><path class="cls-1" d="M11.81,94l.42-1.12C15,90.79,21,85.36,30,76.62h.89l2.89,2.89v.89a74.75,74.75,0,0,0-8.27,9.92,10.57,10.57,0,0,0-.35,6.62,33.7,33.7,0,0,0,4.43,10,49.41,49.41,0,0,0,5.9,8l34.91-35A112.84,112.84,0,0,1,61.67,65a52.31,52.31,0,0,0-2.48-4.9L51.92,48.26c-2.3-3.72-5.25-8-8.74-12.82a72.9,72.9,0,0,0-8.09-10.28,13.31,13.31,0,0,0-4.49-3.07,42.79,42.79,0,0,0-8.39-.47l-.71-.71V17.72l.71-.71,23.28-4.25a27.16,27.16,0,0,1,4.78,4.37,70.05,70.05,0,0,1,6.85,9.81c2.31,3.6,5.08,8.33,8.39,14.17a29.73,29.73,0,0,1,3.31-4A32.65,32.65,0,0,1,94.1,26.82a37.47,37.47,0,0,1,21.21,8L150.1,0H0V150.1l29.55-29.67-1-1.1A69,69,0,0,1,11.81,94Z"/><path class="cls-1" d="M121.21,40.06a62.72,62.72,0,0,0-5.91-5.26l-5.44,5.44a30.85,30.85,0,0,1,6.5,4.66,32.78,32.78,0,0,1,8.33,14q2.37,7.73.89,9.74c-1.07,1.36-3.84,4.43-8.45,9.16v.88l3.07,3h1a108.19,108.19,0,0,1,16.71-13.71l.3-1.12A64.14,64.14,0,0,0,131,52.29,77,77,0,0,0,121.21,40.06Z"/><path class="cls-1" d="M87.25,78.62c-2.9-3.89-5.08-7-6.68-9.27h0L70.83,79.51l-.42.41,3.25,4.55a120.16,120.16,0,0,1,7.21,10.81,22.4,22.4,0,0,1,2.84,7.92,15.78,15.78,0,0,1-1,8.21,23.71,23.71,0,0,1-5.37,8,25.53,25.53,0,0,1-12.59,7.15,24.31,24.31,0,0,1-14.29-.94A36.76,36.76,0,0,1,37.1,116.9c-.65-.65-1.18-1.36-1.77-2l-5.79,5.49a52.58,52.58,0,0,0,31.6,15A36,36,0,0,0,91.8,124.7a27.72,27.72,0,0,0,8-13.64,24,24,0,0,0-1-14A87.84,87.84,0,0,0,87.25,78.62Zm-15.6,2.6c-.05-.14-.12-.28-.19-.43a4.11,4.11,0,0,1,.21.42Z"/></g></g></svg>